<svg width="32" height="32" xmlns="http://www.w3.org/2000/svg">
 <title/>

 <g>
  <title>background</title>
  <rect fill="none" id="canvas_background" height="402" width="582" y="-1" x="-1"/>
 </g>
 <g>
  <title>Layer 1</title>
  <g transform="rotate(-180 15.937502861022951,16.03125) " id="Layer_2">
   <path stroke="#ffaaaa" fill="white" id="svg_1" d="m1,16.031249a14.937504,14.968751 0 1 1 14.937504,14.968751a14.937504,14.968751 0 0 1 -14.937504,-14.968751zm27.88334,0a12.945836,12.972918 0 1 0 -12.945836,12.972918a12.945836,12.972918 0 0 0 12.945836,-12.972918z"/>
   <path fill="#ffaaaa" id="svg_2" d="m12.13,21.59l5.58,-5.59l-5.58,-5.59a1,1 0 0 1 0,-1.41l0,0a1,1 0 0 1 1.41,0l6.36,6.36a0.91,0.91 0 0 1 0,1.28l-6.36,6.36a1,1 0 0 1 -1.41,0l0,0a1,1 0 0 1 0,-1.41z"/>
  </g>
 </g>
</svg>